<svg xmlns="http://www.w3.org/2000/svg" width="10.266" height="13.939" viewBox="0 0 10.266 13.939">
  <g id="Trashcan" transform="translate(-67.446)">
    <path id="パス_7" data-name="パス 7" d="M77.025,165.529a1.427,1.427,0,0,0,1.4,1.324h5.943a1.427,1.427,0,0,0,1.4-1.324l.483-8.335H76.542Z" transform="translate(-8.848 -152.915)" fill="#646464"/>
    <path id="パス_8" data-name="パス 8" d="M77.417,2.194a13.159,13.159,0,0,0-3.379-.709c0-.009,0-.017,0-.026a1.459,1.459,0,0,0-2.918,0c0,.009,0,.017,0,.026a13.159,13.159,0,0,0-3.379.709.432.432,0,0,0-.3.48v.96H77.712v-.96A.432.432,0,0,0,77.417,2.194Zm-4.838-.776c-.215,0-.425,0-.63.013a.631.631,0,0,1,1.26,0C73,1.423,72.795,1.418,72.579,1.418Z" transform="translate(0 0)" fill="#646464"/>
  </g>
</svg>
