<svg xmlns="http://www.w3.org/2000/svg" width="21.315" height="21.315" viewBox="0 0 21.315 21.315">
  <path id="Gear" d="M20.8,8.743l-2.325-.107a.546.546,0,0,1-.481-.337l-.479-1.153a.549.549,0,0,1,.1-.579l1.568-1.721a.549.549,0,0,0-.018-.757L17.232,2.155a.549.549,0,0,0-.758-.017l-1.72,1.568a.548.548,0,0,1-.58.1l-1.153-.478a.546.546,0,0,1-.337-.481L12.577.523A.548.548,0,0,0,12.03,0H9.294a.549.549,0,0,0-.548.523L8.639,2.847a.546.546,0,0,1-.337.481l-1.153.478a.547.547,0,0,1-.58-.1L4.849,2.137a.549.549,0,0,0-.758.017L2.159,4.088a.548.548,0,0,0-.018.757L3.71,6.566a.547.547,0,0,1,.1.579L3.333,8.3a.547.547,0,0,1-.481.337L.527,8.743A.548.548,0,0,0,0,9.29v2.735a.549.549,0,0,0,.523.547l2.324.107a.547.547,0,0,1,.481.337L3.81,14.17a.547.547,0,0,1-.1.579l-1.568,1.72a.549.549,0,0,0,.017.758l1.935,1.933a.549.549,0,0,0,.757.018L6.57,17.61a.548.548,0,0,1,.58-.1l1.153.478a.547.547,0,0,1,.337.482l.107,2.324a.549.549,0,0,0,.548.523H12.03a.548.548,0,0,0,.547-.523l.108-2.324a.547.547,0,0,1,.337-.482l1.153-.478a.549.549,0,0,1,.58.1l1.72,1.569a.55.55,0,0,0,.758-.018l1.933-1.933a.55.55,0,0,0,.018-.758l-1.568-1.72a.547.547,0,0,1-.1-.579l.479-1.153a.546.546,0,0,1,.481-.337l2.325-.107a.548.548,0,0,0,.522-.547V9.29A.547.547,0,0,0,20.8,8.743Zm-10.135,5.4a3.481,3.481,0,1,1,3.48-3.481A3.482,3.482,0,0,1,10.662,14.139Z" transform="translate(-0.004)" fill="#4d4c4c"/>
</svg>
